<?xml version="1.0" encoding="utf-8"?>
<!-- Generator: Adobe Illustrator 19.0.0, SVG Export Plug-In . SVG Version: 6.00 Build 0)  -->
<svg xmlns="http://www.w3.org/2000/svg" xmlns:xlink="http://www.w3.org/1999/xlink" version="1.1" id="Layer_1" x="0px" y="0px" viewBox="0 0 1400 980" style="enable-background:new 0 0 1400 980;" xml:space="preserve">
<style type="text/css">
	.st0{fill:#323132;}
	.st1{fill:#FFFFFF;}
</style>

<g>
	<g>
		<path class="st1" d="M820.2,156.4H579.8c-16.5,0-30.1,13.5-30.1,30.1v240.4c0,16.5,13.5,30.1,30.1,30.1h240.4    c16.5,0,30.1-13.5,30.1-30.1V186.4C850.3,169.9,836.7,156.4,820.2,156.4z"/>
		<path class="st0" d="M820.2,448.9H579.8c-12.2,0-22.1-9.9-22.1-22.1V186.4c0-12.2,9.9-22.1,22.1-22.1h240.4    c12.2,0,22.1,9.9,22.1,22.1v240.4C842.3,439,832.4,448.9,820.2,448.9z M579.8,174.9c-6.4,0-11.5,5.2-11.5,11.5v240.4    c0,6.4,5.2,11.5,11.5,11.5h240.4c6.4,0,11.5-5.2,11.5-11.5V186.4c0-6.4-5.2-11.5-11.5-11.5H579.8z"/>
	</g>
	<g>
		<path class="st1" d="M467.1,156.4H226.7c-16.5,0-30.1,13.5-30.1,30.1v240.4c0,16.5,13.5,30.1,30.1,30.1h240.4    c16.5,0,30.1-13.5,30.1-30.1V186.4C497.1,169.9,483.6,156.4,467.1,156.4z"/>
		<path class="st0" d="M467.1,448.9H226.7c-12.2,0-22.1-9.9-22.1-22.1V186.4c0-12.2,9.9-22.1,22.1-22.1h240.4    c12.2,0,22.1,9.9,22.1,22.1v240.4C489.2,439,479.3,448.9,467.1,448.9z M226.7,174.9c-6.4,0-11.5,5.2-11.5,11.5v240.4    c0,6.4,5.2,11.5,11.5,11.5h240.4c6.4,0,11.5-5.2,11.5-11.5V186.4c0-6.4-5.2-11.5-11.5-11.5H226.7z"/>
	</g>
	<g>
		<path class="st1" d="M1173.3,156.4H932.9c-16.5,0-30.1,13.5-30.1,30.1v240.4c0,16.5,13.5,30.1,30.1,30.1h240.4    c16.5,0,30.1-13.5,30.1-30.1V186.4C1203.4,169.9,1189.9,156.4,1173.3,156.4z"/>
		<path class="st0" d="M1173.3,448.9H932.9c-12.2,0-22.1-9.9-22.1-22.1V186.4c0-12.2,9.9-22.1,22.1-22.1h240.4    c12.2,0,22.1,9.9,22.1,22.1v240.4C1195.4,439,1185.5,448.9,1173.3,448.9z M932.9,174.9c-6.4,0-11.5,5.2-11.5,11.5v240.4    c0,6.4,5.2,11.5,11.5,11.5h240.4c6.4,0,11.5-5.2,11.5-11.5V186.4c0-6.4-5.2-11.5-11.5-11.5H932.9z"/>
	</g>
	<g>
		<path class="st1" d="M467.1,523.1H226.7c-16.5,0-30.1,13.5-30.1,30.1v240.4c0,16.5,13.5,30.1,30.1,30.1h240.4    c16.5,0,30.1-13.5,30.1-30.1V553.2C497.1,536.7,483.6,523.1,467.1,523.1z"/>
		<path class="st0" d="M467.1,815.7H226.7c-12.2,0-22.1-9.9-22.1-22.1V553.2c0-12.2,9.9-22.1,22.1-22.1h240.4    c12.2,0,22.1,9.9,22.1,22.1v240.4C489.2,805.8,479.3,815.7,467.1,815.7z M226.7,541.7c-6.4,0-11.5,5.2-11.5,11.5v240.4    c0,6.4,5.2,11.5,11.5,11.5h240.4c6.4,0,11.5-5.2,11.5-11.5V553.2c0-6.4-5.2-11.5-11.5-11.5H226.7z"/>
	</g>
	<g>
		<path class="st1" d="M820.2,523.1H579.8c-16.5,0-30.1,13.5-30.1,30.1v240.4c0,16.5,13.5,30.1,30.1,30.1h240.4    c16.5,0,30.1-13.5,30.1-30.1V553.2C850.3,536.7,836.7,523.1,820.2,523.1z"/>
		<path class="st0" d="M820.2,815.7H579.8c-12.2,0-22.1-9.9-22.1-22.1V553.2c0-12.2,9.9-22.1,22.1-22.1h240.4    c12.2,0,22.1,9.9,22.1,22.1v240.4C842.3,805.8,832.4,815.7,820.2,815.7z M579.8,541.7c-6.4,0-11.5,5.2-11.5,11.5v240.4    c0,6.4,5.2,11.5,11.5,11.5h240.4c6.4,0,11.5-5.2,11.5-11.5V553.2c0-6.4-5.2-11.5-11.5-11.5H579.8z"/>
	</g>
	<g>
		<path class="st1" d="M1173.3,523.1H932.9c-16.5,0-30.1,13.5-30.1,30.1v240.4c0,16.5,13.5,30.1,30.1,30.1h240.4    c16.5,0,30.1-13.5,30.1-30.1V553.2C1203.4,536.7,1189.9,523.1,1173.3,523.1z"/>
		<path class="st0" d="M1173.3,815.7H932.9c-12.2,0-22.1-9.9-22.1-22.1V553.2c0-12.2,9.9-22.1,22.1-22.1h240.4    c12.2,0,22.1,9.9,22.1,22.1v240.4C1195.4,805.8,1185.5,815.7,1173.3,815.7z M932.9,541.7c-6.4,0-11.5,5.2-11.5,11.5v240.4    c0,6.4,5.2,11.5,11.5,11.5h240.4c6.4,0,11.5-5.2,11.5-11.5V553.2c0-6.4-5.2-11.5-11.5-11.5H932.9z"/>
	</g>
	<g>
		<g>
			<polygon class="st0" points="340.5,265.5 306.7,209.6 272.9,265.5 293.5,265.5 293.5,369.3 319.9,369.3 319.9,265.5    "/>
			<polygon class="st0" points="420.8,265.5 387,209.6 353.2,265.5 373.8,265.5 373.8,369.3 400.3,369.3 400.3,265.5    "/>
		</g>
		<rect x="270.5" y="374.2" class="st0" width="152.8" height="29.4"/>
	</g>
	<path class="st0" d="M704.8,335c33.8-4.6,52.9-57.1,48.2-100.9c-0.9-8.1-2.2-15.4-4-22h-72.8l8.8,49l-8.4-4.5l11.2,35.3l-24.9-47.1   l14.8,8.7L664,212h-13.1c-1.8,6.6-3.1,13.9-4,22c-4.7,43.9,14.4,96.4,48.2,100.9v55.9c-14.3,0.8-26.3,4.8-31.5,10.4h72.5   c-5.2-5.5-17.1-9.6-31.5-10.4V335z"/>
	<g>
		<path class="st0" d="M1025.9,210.1c0,0-10.1,5.9-13.3,12.2c-1.8,3.5,0,5.8,1.7,6.8c1.3,0.8,4.5,2.5,7.1-2.3    C1022.9,224.1,1025.6,214.1,1025.9,210.1z"/>
		<path class="st0" d="M1072.3,190.2c0,0-10.1,5.9-13.3,12.2c-1.8,3.5,0,5.8,1.7,6.8c1.3,0.7,4.6,2.5,7.1-2.3    C1069.2,204.1,1072,194.2,1072.3,190.2z"/>
		<path class="st0" d="M1092.4,210.1c0,0-10.1,5.9-13.3,12.2c-1.8,3.5,0,5.8,1.7,6.8c1.3,0.8,4.5,2.5,7.1-2.3    C1089.4,224.1,1092.1,214.1,1092.4,210.1z"/>
		<path class="st0" d="M1121.6,190.2c0,0-10.1,5.9-13.3,12.2c-1.8,3.5,0,5.8,1.7,6.8c1.3,0.7,4.5,2.5,7.1-2.3    C1118.5,204.1,1121.3,194.2,1121.6,190.2z"/>
		<path class="st0" d="M1114.6,170.3c0,0-10.1,5.9-13.3,12.2c-1.8,3.5,0,5.8,1.7,6.8c1.3,0.8,4.5,2.5,7.1-2.3    C1111.5,184.2,1114.2,174.3,1114.6,170.3z"/>
		<path class="st0" d="M1053.2,229.4c-49.6,0-89.9,39.4-91.4,88.7c8.1-12.7,22.3-21.1,38.5-21.1c8.2,0,15.9,2.2,22.6,6    c6.8-4.9,14.9-8,23.7-8.9v83.3c0,9.3-7.5,16.8-16.8,16.8c-9.3,0-16.8-7.5-16.8-16.8h-9.4c0,14.4,11.7,26.2,26.2,26.2    s26.2-11.7,26.2-26.2v-83.3c10.2,1,19.4,5,26.8,11.3c7.5-5.3,16.5-8.4,26.4-8.4c14.2,0,26.9,6.5,35.2,16.6    C1140.7,266.5,1101.3,229.4,1053.2,229.4z"/>
	</g>
	<g>
		<path class="st0" d="M1076.2,700.5v14.7h35c0,0,8.4,10.8,8.4,21.2c0,10.4-3.8,11.1-7.7,11.3c-3.8,0.2-34.3,0-34.3,0v12l-23.9-29.6    L1076.2,700.5z"/>
		<path class="st0" d="M1046.4,715.4v32.8h-51.7c0,0-8.6-0.9-30-37.3c0,0,7.5,4.5,15.8,4.5C988.8,715.4,1046.4,715.4,1046.4,715.4z"/>
		<path class="st0" d="M1022,688.2l-12.6-7.5l-18,30c0,0-13.6,1.6-22.5-3.7c-8.9-5.3-7.5-9-5.7-12.4c1.8-3.4,17.6-29.5,17.6-29.5    l-10.3-6.1l37.7-5.4L1022,688.2z"/>
		<path class="st0" d="M1024.5,654.9l-28.1-16.8l26.6-44.4c0,0,5.2-6.9,47.4-6.6c0,0-7.7,4.1-12,11.2    C1054.1,605.5,1024.5,654.9,1024.5,654.9z"/>
		<path class="st0" d="M1061.4,649l12.6-7.5l-18-30c0,0,5-12.7,13.9-18.1c8.9-5.3,11.5-2.4,13.6,0.8c2.2,3.2,17.6,29.5,17.6,29.5    l10.3-6.1l-13.1,35.7L1061.4,649z"/>
		<path class="st0" d="M1089.5,666.9l28.1-16.8l26.6,44.4c0,0,3.6,7.8-16.5,44.9c0,0,0-8.7-4.2-15.9    C1119.1,716.3,1089.5,666.9,1089.5,666.9z"/>
	</g>
	<g>
		<g>
			<path class="st0" d="M332.1,726.3l-30.3-37.2c-2.5-3.1-7.1-3.6-10.2-1c-3.1,2.5-3.6,7.1-1,10.2l18.6,22.8     c1.1,1.3,1.1,3.1,0.1,4.5l0,0c-0.7,0.9-1.7,1.4-2.8,1.5c-1.1,0.1-2.2-0.4-2.9-1.2l-24.9-27.5c-0.6-0.6-0.9-1.4-0.9-2.3v-46     c0-4.9-4-8.8-8.8-8.8c-4.9,0-8.8,4-8.8,8.8v54v8.3v3.9c0,1.6,0.5,3.2,1.5,4.5l28.3,38.5c0.3,0.4,0.5,1,0.5,1.5v16.4h43.2v-44.8     C334.1,730.4,333.6,728.1,332.1,726.3z"/>
			<path class="st0" d="M361.6,726.3l30.3-37.2c2.5-3.1,7.1-3.6,10.2-1c3.1,2.5,3.6,7.1,1,10.2l-18.6,22.8c-1.1,1.3-1.1,3.1-0.1,4.5     c0.7,0.9,1.7,1.4,2.8,1.5c1.1,0.1,2.2-0.4,2.9-1.2l24.9-27.5c0.6-0.6,0.9-1.4,0.9-2.3v-46c0-4.9,4-8.8,8.8-8.8     c4.9,0,8.8,4,8.8,8.8v54v8.3v3.9c0,1.6-0.5,3.2-1.5,4.5l-28.3,38.4c-0.3,0.4-0.5,1-0.5,1.5v16.4h-43.2v-44.8     C359.7,730.4,360.2,728.1,361.6,726.3z"/>
		</g>
		<g>
			<g>
				<polygon class="st0" points="290.8,607.1 290.8,666.8 342.8,696.8 342.8,636.4     "/>
				<polygon class="st0" points="350.9,696.8 350.9,637.2 403,607.1 403,667.5     "/>
			</g>
			<polygon class="st0" points="295,601.6 346.6,569.5 398.8,601.6 346.6,629.6    "/>
		</g>
	</g>
	<g>
		<g>
			<g>
				<polygon class="st0" points="654.8,701.9 654.8,749.9 696.7,774.1 696.7,725.4     "/>
				<polygon class="st0" points="703.3,774.1 703.3,726.1 745.2,701.9 745.2,750.5     "/>
			</g>
			<polygon class="st0" points="658.2,697.4 699.7,671.5 741.8,697.4 699.7,720    "/>
		</g>
		<g>
			<circle class="st0" cx="780" cy="609.3" r="18.4"/>
			<g>
				<rect x="801.3" y="607.3" class="st0" width="15.4" height="3.9"/>
				<rect x="743.4" y="607.3" class="st0" width="15.4" height="3.9"/>
			</g>
			<g>
				
					<rect x="798.5" y="622.1" transform="matrix(-0.707 0.7072 -0.7072 -0.707 1811.8687 508.9315)" class="st0" width="3.9" height="15.4"/>
				
					<rect x="757.6" y="581.2" transform="matrix(-0.7077 0.7065 -0.7065 -0.7077 1713.1215 468.9805)" class="st0" width="3.9" height="15.4"/>
			</g>
			<g>
				
					<rect x="757.6" y="622.1" transform="matrix(-0.7072 -0.707 0.707 -0.7072 851.4667 1612.1971)" class="st0" width="3.9" height="15.4"/>
				
					<rect x="798.5" y="581.2" transform="matrix(-0.7073 -0.7069 0.7069 -0.7073 950.4803 1571.2124)" class="st0" width="3.9" height="15.4"/>
			</g>
			<g>
				<rect x="778.1" y="572.7" class="st0" width="3.9" height="15.4"/>
				<rect x="778.1" y="630.6" class="st0" width="3.9" height="15.4"/>
			</g>
		</g>
		<polygon class="st0" points="700,621.8 634.9,653.5 634.9,630 612.2,630 612.2,664.6 583.3,678.7 583.3,695.8 700,639     816.7,695.8 816.7,678.7   "/>
	</g>
</g>
</svg>
